<svg width="0" height="0" class="hidden">
  <symbol xmlns="http://www.w3.org/2000/svg" viewBox="0 0 123.959 123.958" id="arrow-down-lang">
    <path d="M117.979 28.017h-112c-5.3 0-8 6.4-4.2 10.2l56 56c2.3 2.3 6.1 2.3 8.401 0l56-56c3.799-3.8 1.099-10.2-4.201-10.2z"></path>
  </symbol>
  <symbol xmlns="http://www.w3.org/2000/svg" viewBox="0 0 330 330" id="info">
    <path d="M165 0C74.019 0 0 74.02 0 165.001 0 255.982 74.019 330 165 330s165-74.018 165-164.999S255.981 0 165 0zm0 300c-74.44 0-135-60.56-135-134.999S90.56 30 165 30s135 60.562 135 135.001C300 239.44 239.439 300 165 300z"></path>
    <path d="M164.998 70c-11.026 0-19.996 8.976-19.996 20.009 0 11.023 8.97 19.991 19.996 19.991 11.026 0 19.996-8.968 19.996-19.991 0-11.033-8.97-20.009-19.996-20.009zm.002 70c-8.284 0-15 6.716-15 15v90c0 8.284 6.716 15 15 15 8.284 0 15-6.716 15-15v-90c0-8.284-6.716-15-15-15z"></path>
  </symbol>
  <symbol xmlns="http://www.w3.org/2000/svg" viewBox="0 0 512 512" id="arrow-down">
    <path d="M374.108 373.328c-7.829-7.792-20.492-7.762-28.284.067L276 443.557V20c0-11.046-8.954-20-20-20s-20 8.954-20 20v423.558l-69.824-70.164c-7.792-7.829-20.455-7.859-28.284-.067-7.83 7.793-7.859 20.456-.068 28.285l104 104.504.019.018c7.792 7.809 20.496 7.834 28.314.001l.019-.018 104-104.504c7.79-7.828 7.763-20.492-.068-28.285z"></path>
  </symbol>
  <symbol xmlns="http://www.w3.org/2000/svg" viewBox="0 0 487 487" id="arrow-right">
    <path d="M482 234.839l-116.5-67.261c-4.783-2.761-10.898-1.122-13.66 3.66-2.762 4.783-1.122 10.898 3.66 13.66l84.213 48.62H10c-5.523 0-10 4.478-10 10 0 5.521 4.477 10 10 10h429.646L355.5 302.101c-4.783 2.762-6.422 8.877-3.66 13.66a9.997 9.997 0 0013.66 3.66L482 252.159a10 10 0 000-17.32z"></path>
  </symbol>
  <symbol xmlns="http://www.w3.org/2000/svg" viewBox="0 0 512 512" id="mouse">
    <path d="M256 0C156.595 0 75.726 82.14 75.726 183.099v145.807C75.726 429.865 156.595 512 256 512c99.399 0 180.274-81.886 180.274-182.534V183.099C436.274 82.14 355.399 0 256 0zm146.366 329.466c0 81.954-65.656 148.627-146.366 148.627-80.705 0-146.366-66.927-146.366-149.192V183.099c0-82.265 65.661-149.192 146.366-149.192 80.711 0 146.366 66.927 146.366 149.192v146.367z"></path>
    <path d="M256 140.15c-9.364 0-16.954 7.59-16.954 16.954v59.338c0 9.364 7.59 16.954 16.954 16.954s16.954-7.59 16.954-16.954v-59.338c0-9.364-7.59-16.954-16.954-16.954z"></path>
  </symbol>
  <symbol xmlns="http://www.w3.org/2000/svg" viewBox="0 0 512 512" id="arrow-down-intro">
    <path d="M374.108 373.328c-7.829-7.792-20.492-7.762-28.284.067L276 443.557V20c0-11.046-8.954-20-20-20s-20 8.954-20 20v423.558l-69.824-70.164c-7.792-7.829-20.455-7.859-28.284-.067-7.83 7.793-7.859 20.456-.068 28.285l104 104.504.019.018c7.792 7.809 20.496 7.834 28.314.001l.019-.018 104-104.504c7.79-7.828 7.763-20.492-.068-28.285z"></path>
  </symbol>
  <symbol xmlns="http://www.w3.org/2000/svg" viewBox="0 0 350 350" id="play">
    <path d="M175 0C78.343 0 0 78.343 0 175c0 96.656 78.343 175 175 175 96.656 0 175-78.344 175-175C350 78.343 271.656 0 175 0zm83.738 189.05l-104.386 71.812a17.073 17.073 0 01-17.603 1.055c-5.605-2.965-9.125-8.777-9.125-15.103V103.188c0-6.326 3.52-12.139 9.125-15.104a17.074 17.074 0 0117.603 1.055l104.386 71.811a17.072 17.072 0 017.387 14.05 17.07 17.07 0 01-7.387 14.05z"></path>
  </symbol>
</svg>